<?xml version="1.0" encoding="utf-8"?>
<!-- Generator: Adobe Illustrator 19.2.1, SVG Export Plug-In . SVG Version: 6.00 Build 0)  -->
<svg version="1.1" id="Layer_1" xmlns="http://www.w3.org/2000/svg" xmlns:xlink="http://www.w3.org/1999/xlink" x="0px" y="0px"
	 viewBox="0 0 300 240" style="enable-background:new 0 0 300 240;" xml:space="preserve">
<style type="text/css">
	.st0{fill:#1D1D1B;}
	.st1{fill:#AD1622;}
</style>
<path class="st0" d="M232.2-6.3c0.6-0.2,1.2-0.5,1.7-0.7"/>
<path class="st0" d="M232.2,63.8c0.6-0.2,1.2-0.5,1.7-0.7"/>
<rect class="st1" width="300" height="240"/>
<g>
	<g>
		<path d="M218,99.9c-6,6.4-11.8,12.5-17.6,18.8c6.5,10.4,13,20.7,19.6,31.2c-0.7,0-1.2,0.1-1.6,0.1c-5.2,0-10.4,0-15.7,0
			c-1,0-1.6-0.3-2.1-1.2c-3.4-5.9-6.9-11.8-10.4-17.7c-0.3-0.4-0.5-0.9-0.9-1.4c-1.5,1.5-2.9,3-4.2,4.5c-0.3,0.3-0.4,0.9-0.4,1.4
			c0,4.2,0,8.4,0,12.6c0,0.5,0,1,0,1.6c-0.5,0.1-0.9,0.1-1.3,0.1c-4.4,0-8.9,0-13.3,0c-1.1,0-1.4-0.3-1.4-1.4c0-22.4,0-44.8,0-67.2
			c0-0.7-0.1-1.4,1-1.4c4.8,0,9.5,0,14.3,0c0.2,0,0.4,0.1,0.7,0.2c0,12,0,24,0,36.3c1.7-1.9,3.2-3.6,4.6-5.3c3.1-3.5,6.1-7,9.2-10.5
			c0.4-0.5,1.1-0.9,1.7-0.9c5.5-0.1,11.1,0,16.6,0C217.2,99.8,217.4,99.8,218,99.9z"/>
		<path d="M118.2,114.5c0.4-6.2,3.1-10.8,8.3-13.9c5.1-3,10.7-3.6,16.5-3.4c3.5,0.1,7,0.5,10.3,1.9c6.5,2.7,10.1,7.6,10.2,14.5
			c0.3,11.5,0.1,23,0.1,34.5c0,0.1-0.1,0.3-0.1,0.5c-0.4,0-0.8,0.1-1.2,0.1c-3.8,0-7.5,0-11.3,0c-1.1,0-1.7-0.4-1.9-1.4
			c-0.4-1.3-0.7-2.6-1-3.9c-0.1,0-0.2,0-0.2,0.1c-4.4,5.6-10.4,6.9-17.1,6.3c-0.8-0.1-1.7-0.2-2.5-0.4
			c-10.6-2.1-13.9-11.5-11.5-19.7c0.9-3.2,3.1-5.6,6-7.3c3.8-2.2,8-3,12.2-3.6c3.1-0.5,6.3-1,9.3-1.7c2.6-0.6,3.7-2,3.6-4
			c-0.1-2.4-1.5-4.3-4-4.7c-1.9-0.3-3.8-0.3-5.7,0c-2.6,0.4-4.3,2.2-4.8,4.8c-0.2,1-0.6,1.3-1.6,1.3c-4.1-0.1-8.1,0-12.2,0
			C119.2,114.6,118.8,114.5,118.2,114.5z M148.1,125.3c-3.1,0.9-6.2,1.7-9.3,2.6c-1.6,0.5-3.2,1-4.7,1.8c-2.1,1-2.8,2.9-2.6,5.1
			c0.2,2.3,1.4,3.7,3.5,4.3c3.1,0.9,6.1,0.6,8.9-0.9c2.4-1.3,3.8-3.4,4-6C148.3,129.9,148.1,127.6,148.1,125.3z"/>
		<path d="M86.7,109.4c-1.9,0-3.6,0-5.3,0c-0.9,0-1.3-0.2-1.3-1.2c0.1-2.6,0-5.2,0-7.8c0-0.9,0.3-1.2,1.2-1.2c1.8,0.1,3.5,0,5.4,0
			c0-5.3,0-10.4,0-15.7c0.6,0,1-0.1,1.4-0.1c4.3,0,8.7,0,13,0c1.1,0,1.4,0.4,1.4,1.4c0,4.7,0,9.4,0,14.3c3,0,5.9,0,8.9,0
			c0,3.5,0,6.7,0,10.2c-2.9,0-5.8,0-8.9,0c0,0.6,0,1.1,0,1.5c0,7.2,0,14.4,0,21.5c0,3.4,1.3,4.8,4.8,5c1.1,0.1,2.2-0.1,3.4,0
			c0.3,0,0.9,0.3,0.9,0.5c0.5,3.7,1.9,7.1,4.5,10.1c-7,1.8-13.7,2.9-20.5,0.8c-5.7-1.8-8.8-6.2-8.8-12.7c-0.1-8.3,0-16.6,0-24.9
			C86.7,110.8,86.7,110.2,86.7,109.4z"/>
	</g>
	<path d="M220,90c0-5.5,4.5-10,10-10c5.5,0,10,4.5,10,10c0,5.5-4.5,10-10,10C224.5,100,220,95.5,220,90z M238,90c0-4.4-3.6-8-8-8
		c-4.4,0-8,3.6-8,8c0,4.4,3.6,8,8,8C234.4,98,238,94.4,238,90z"/>
	<path d="M231.7,90.1C231.7,90.1,231.8,90.1,231.7,90.1c0.5,0.1,0.8,0.4,1.1,0.7c0.3,0.3,0.5,0.7,0.7,1.1c0.5,1,1,2,1.5,3
		c0,0,0,0,0,0.1c0,0,0,0-0.1,0c-0.9,0-1.8,0-2.8,0c0,0-0.1,0-0.1,0c-0.4-0.9-0.9-1.7-1.3-2.6c-0.1-0.3-0.3-0.5-0.5-0.7
		c-0.3-0.3-0.6-0.5-1-0.5c-0.3,0-0.6,0-0.9,0c-0.1,0-0.1,0-0.2,0c0,1.3,0,2.6,0,4c-0.9,0-1.8,0-2.7,0c0-3.5,0-7,0-10.5c0,0,0,0,0,0
		c1.4,0,2.9,0,4.3,0c0.6,0,1.2,0.1,1.8,0.2c0.4,0.1,0.8,0.3,1.2,0.6c0.4,0.3,0.6,0.7,0.7,1.1c0.2,0.6,0.2,1.3,0,1.9
		c-0.2,0.6-0.5,1-1,1.3C232.3,89.9,232.1,90,231.7,90.1C231.8,90.1,231.8,90.1,231.7,90.1z M228.3,89.2
		C228.3,89.2,228.3,89.2,228.3,89.2c0.4,0,0.8,0,1.2,0c0.2,0,0.5,0,0.7-0.1c0.4-0.1,0.6-0.3,0.8-0.7c0.1-0.4,0.1-0.7,0-1.1
		c-0.1-0.4-0.3-0.6-0.7-0.7c-0.2-0.1-0.5-0.1-0.8-0.1c-0.4,0-0.8,0-1.2,0c0,0,0,0,0,0C228.3,87.4,228.3,88.3,228.3,89.2z"/>
</g>
</svg>
